<?xml version="1.0" encoding="UTF-8"?><svg id="Layer_1" xmlns="http://www.w3.org/2000/svg" viewBox="0 0 570.42 840.91"><defs><style>.cls-1{fill:#1d1d1b;stroke-width:0px;}</style></defs><path class="cls-1" d="M170.91,322.94c2.45.77,5.03-.55,5.86-2.98,3.36-9.88,11.53-33.83,14.67-42.77.7-2,2.82-3.09,4.86-2.52,7.9,2.2,27.21,7.28,36.85,9.81,3.21.84,6.51-.93,7.6-4.07,4.46-12.84,15.39-44.4,19.18-56.33.83-2.62-.61-5.39-3.24-6.21-10.23-3.18-34.25-10.56-44.29-12.9-2.45-.57-4.91.78-5.74,3.15-3.28,9.33-11.27,31.73-15.24,39.68-.9,1.79-2.9,2.69-4.81,2.08-8.57-2.74-32.31-10.02-42.83-13.24-2.89-.89-5.93.64-6.96,3.49-4.58,12.75-16.51,46.1-20.83,59.15-.98,2.95.63,6.1,3.58,7.06,11.81,3.86,40.42,13.18,51.34,16.6Z"/><path class="cls-1" d="M174.75,229.18c2.99.96,6.2-.55,7.33-3.48,4.62-11.99,15.69-42.18,20.88-56.37,1.52-4.16-.67-8.73-4.87-10.13-11.16-3.71-32.34-10.33-43.61-13.84-4.26-1.32-8.8.85-10.46,4.99-4.88,12.19-14.7,37.11-20.81,55.43-1.15,3.44.75,7.12,4.2,8.22l47.34,15.18Z"/><path class="cls-1" d="M461.63,589.21c-4.5-1.95-9.15-2.95-14.01-2.95-.39,0-.78,0-1.17.02-4.41.15-8.82.48-13.23.48-.1,0-.2,0-.3,0-2.92-.01-5.84-.51-8.76-.79,0-.32,0-.63,0-.95,3.74-3.86,11.05-8.09,17.17-8.09,1.31,0,2.56.19,3.71.62.52-.6,9.17-12.7,12.97-21.81,1.56-3.75,1.02-4.59-2.96-5.1-1.31-.17-2.59-.25-3.85-.25-7.91,0-14.74,3.3-20.18,9.18-11.82,12.77-20.29,27.79-27.24,43.67-.87,1.98-1.52,4.12-1.89,6.25-.79,4.49.35,6.57,4.73,7.58,3.56.83,7.29,1.18,10.95,1.27.77.02,1.53.03,2.3.03,4.43,0,8.86-.27,13.29-.28h.01c1.92,0,3.85.43,5.78.67-19.15,11.13-39.67,17.5-61.8,21.36,4.16,6.33,8.96,10.14,15.37,11.72,4.75,1.17,9.29,1.71,13.61,1.71,27.96,0,47.18-22.83,57.71-48.96,1.06-2.62,1.58-5.5,2.04-8.3.57-3.44-1.09-5.69-4.26-7.07Z"/><path class="cls-1" d="M453.3,418.75h0c-.23-.86-.53-2.08-.89-3.56-5.24-21.45-10.16-32.44-14.64-32.65-16.36-.81-29.57,7.06-44.32,19.05-13.31,10.82-27.28,23.28-42.68,38.08-14.48,13.92-28.2,29.05-41.47,43.68-11.78,12.99-23.97,26.43-36.69,39.02-30.82,30.52-60.52,47.58-90.8,52.16-29,4.38-65.89-4.62-82.94-34.63-.37-.66-.7-1.18-.97-1.59-.67,4.25-.3,13.53.23,16.87,3.38,21.29,9.15,39.24,17.17,53.36,14.71,25.91,42.94,41.99,73.68,41.99h.11c30.39-.04,61.83-14.86,93.44-44.05,15.82-14.6,30.52-30.93,44.74-46.72,12.01-13.33,24.43-27.12,37.52-39.88,15.59-15.2,30.33-28.5,45.05-40.64,13.26-10.93,29.03-22.55,49.18-21.9,1.6-4.95-3.11-29.08-5.71-38.61Z"/><path class="cls-1" d="M415.21,304.68c7.93,8.87,15.81,17.68,23.46,26.46,33.96,38.97,68.08,82.04,87.65,132.81,13.32,34.58,16.18,71.85,12.38,108.52-4.69,45.37-10.68,47.03-12.71,66.03-.32,3.01,3.73,4.33,5.16,1.65,6.2-11.57,12.15-28.88,15.26-38.66,11.49-36.15,18-74.13,19.85-112.15.71-14.62.36-29.32-1.42-43.86-4.53-36.87-19.08-73.89-44.48-113.18-15.02-23.23-32.33-45.03-50.28-66.03-14.07,7.91-28.16,17.29-42.26,28.2-4.26,3.3-8.45,6.72-12.62,10.18Z"/><path class="cls-1" d="M360.06,134.94c-31.06-45.15-48.73-90.55-52.54-134.94-.57.52-24.54,23.06-24.49,72.7.07,66.48,38.89,121,79.86,171.61,16.22-15.07,32.88-29.51,50.36-42.38-18.67-21.36-37.02-43.47-53.19-66.98Z"/><path class="cls-1" d="M564.19,191.35c-.18-.68-.43-1.68-.74-2.91-7.43-29.93-12.56-33.3-14.55-33.3-44.19,0-87.72,20.18-123.34,44.81-35.41,24.49-66.19,54.89-96.83,84.93-16.6,16.27-33.75,33.1-50.85,48.2-50.42,44.51-97.74,70.08-144.66,78.15-26.89,4.62-51.57,3.15-73.34-4.37-10.52-3.64-22.5-8.51-31.52-17.04-14.5-13.71-18.76-25.17-21.87-33.53-1.44-3.88-2.58-6.94-4.35-9.21-.78-1-1.37-1.62-1.79-2-.73,3.03-.27,11.26.81,16.85,8.74,45.6,23.94,94.97,70.48,115.42,45.48,19.99,92.49,9.38,123.92-3.04,60.39-23.86,106.71-69.54,151.51-113.72,24.83-24.49,49.76-49.11,77.38-70.49,38.79-30.04,84.26-53.96,133.66-59.21,1.29-.14,11.53-.18,11.85-.89,1.71-3.75-1.54-23.1-5.77-38.66Z"/><path class="cls-1" d="M187.93,839.93v-52.94c0-2.95-.41-5.31-1.22-7.11-.82-1.8-2.7-2.69-5.64-2.69h-1.96v-1.96h41.77c2.29,0,4.02.38,5.19,1.12,1.18.75,2,1.73,2.45,2.94.46,1.21.69,2.47.69,3.78v7.35h-1.96c0-3.92-1.06-6.78-3.18-8.58-2.12-1.8-5.15-2.69-9.07-2.69h-18.23v25.49h26.47v3.92h-26.47v27.45h17.15c4.45,0,7.96-.81,10.54-2.45,2.58-1.64,4.62-4.41,6.13-8.33l1.96.49-3.43,9.32c-.53,1.5-1.39,2.69-2.6,3.57-1.21.88-2.8,1.32-4.76,1.32h-33.82Z"/><path class="cls-1" d="M279.78,839.93v-34.31c0-2.95-.41-5.31-1.23-7.11-.81-1.8-2.69-2.69-5.64-2.69h-.98v-1.96h7.84c2.48,0,4.37.36,5.64,1.08s2.17,1.83,2.69,3.33c1.11-1.11,2.73-2.29,4.85-3.53,2.12-1.24,4.59-1.86,7.4-1.86.98,0,2.03.12,3.14.35,1.11.23,2.03.61,2.75,1.12.72.53,1.34,1.15,1.86,1.86.52.72,1.04,1.57,1.57,2.55l-3.92,2.95c-.72-.98-1.78-1.72-3.19-2.21s-2.95-.74-4.65-.74c-1.96,0-3.76.44-5.39,1.32-1.64.89-2.94,2.08-3.92,3.58v36.27h-8.82Z"/><path class="cls-1" d="M367.63,840.91c-3.47,0-6.3-1.01-8.48-3.03-2.2-2.03-3.29-5.26-3.29-9.71v-30.39h-6.87v-3.92h6.87v-8.82l4.9-5.88h3.92v14.7h11.77v3.92h-11.77v30.39c0,2.95.57,5.15,1.72,6.62,1.14,1.47,2.86,2.21,5.15,2.21,1.69,0,3.1-.2,4.21-.59s2.16-.85,3.14-1.37l.98,1.96c-1.05.78-2.49,1.63-4.31,2.55-1.84.92-4.48,1.37-7.94,1.37Z"/><path class="cls-1" d="M423.31,839.93v-52.94c0-2.95-.41-5.31-1.23-7.11-.81-1.8-2.69-2.69-5.64-2.69h-1.95v-1.96h8.82c2.29,0,4.07.29,5.34.88,1.27.58,2.18,1.73,2.69,3.43.53,1.69.78,4.18.78,7.45v10.78c1.24-1.24,2.95-2.37,5.1-3.38,2.16-1.01,4.71-1.52,7.65-1.52,2.09,0,4.13.27,6.13.78,1.99.53,3.77,1.43,5.34,2.7,1.57,1.27,2.83,3.07,3.77,5.39.95,2.32,1.42,5.24,1.42,8.77v29.41h-8.82v-29.41c0-3.26-.53-5.86-1.57-7.79-1.05-1.92-2.39-3.32-4.03-4.17-1.63-.85-3.37-1.27-5.19-1.27-1.96,0-3.77.52-5.44,1.57-1.66,1.04-3.12,2.25-4.37,3.63v37.45h-8.82Z"/></svg>